HIERARCHY
ROOT Hips
{
	OFFSET -0.179506 -22.333345 2.821913
	CHANNELS 6 Xposition Yposition Zposition Zrotation Yrotation Xrotation 
	JOINT LeftUpLeg
	{
		OFFSET 6.951974 -9.140623 -0.681533
		CHANNELS 3 Zrotation Yrotation Xrotation
		JOINT LeftLeg
		{
			OFFSET 3.427654 -37.519855 -0.449580
			CHANNELS 3 Zrotation Yrotation Xrotation
			JOINT LeftFoot
			{
				OFFSET -1.359570 -39.796059 -4.369333
				CHANNELS 3 Zrotation Yrotation Xrotation
				JOINT LeftToe
				{
					OFFSET 2.635814 -5.579078 11.928840
					CHANNELS 3 Zrotation Yrotation Xrotation
					End Site
					{
						OFFSET 0.000000 0.000000 0.000000
					}
				}
			}
		}
	}
	JOINT RightUpLeg
	{
		OFFSET -6.767048 -9.052170 -0.431982
		CHANNELS 3 Zrotation Yrotation Xrotation
		JOINT RightLeg
		{
			OFFSET -3.829005 -38.256897 -0.885003
			CHANNELS 3 Zrotation Yrotation Xrotation
			JOINT RightFoot
			{
				OFFSET 1.577377 -39.841461 -4.231180
				CHANNELS 3 Zrotation Yrotation Xrotation
				JOINT RightToe
				{
					OFFSET -2.537174 -4.814398 12.334795
					CHANNELS 3 Zrotation Yrotation Xrotation
					End Site
					{
						OFFSET 0.000000 0.000000 0.000000
					}
				}
			}
		}
	}
	JOINT Spine
	{
		OFFSET -0.253288 10.896323 -2.669631
		CHANNELS 3 Zrotation Yrotation Xrotation
		JOINT Spine1
		{
			OFFSET 0.548704 13.518043 0.109247
			CHANNELS 3 Zrotation Yrotation Xrotation
			JOINT Spine2
			{
				OFFSET 0.145701 5.292222 2.542457
				CHANNELS 3 Zrotation Yrotation Xrotation
				JOINT Neck
				{
					OFFSET -0.277840 21.387037 -4.285703
					CHANNELS 3 Zrotation Yrotation Xrotation
					JOINT Head
					{
						OFFSET 0.515184 6.496960 5.134897
						CHANNELS 3 Zrotation Yrotation Xrotation
						End Site
						{
							OFFSET 0.000000 0.000000 0.000000
						}
					}
				}
				JOINT LeftShoulder
				{
					OFFSET 7.884473 12.174932 -3.408961
					CHANNELS 3 Zrotation Yrotation Xrotation
					JOINT LeftArm
					{
						OFFSET 9.097692 3.046888 -0.886815
						CHANNELS 3 Zrotation Yrotation Xrotation
						JOINT LeftForeArm
						{
							OFFSET 25.961220 -1.277207 -2.745643
							CHANNELS 3 Zrotation Yrotation Xrotation
							JOINT LeftHand
							{
								OFFSET 24.923361 0.898606 -0.117091
								CHANNELS 3 Zrotation Yrotation Xrotation
								End Site
								{
									OFFSET 0.000000 0.000000 0.000000
								}
							}
						}
					}
				}
				JOINT RightShoulder
				{
					OFFSET -8.175920 11.883285 -3.861528
					CHANNELS 3 Zrotation Yrotation Xrotation
					JOINT RightArm
					{
						OFFSET -9.601238 3.255117 -0.914307
						CHANNELS 3 Zrotation Yrotation Xrotation
						JOINT RightForeArm
						{
							OFFSET -25.374195 -1.332924 -2.140099
							CHANNELS 3 Zrotation Yrotation Xrotation
							JOINT RightHand
							{
								OFFSET -25.529810 0.777228 -0.555919
								CHANNELS 3 Zrotation Yrotation Xrotation
								End Site
								{
									OFFSET 0.000000 0.000000 0.000000
								}
							}
						}
					}
				}
			}
		}
	}
}
MOTION
Frames: 13
Frame Time: 0.033333
5.904157 107.755814 -4.263758 4.093027 -47.180577 -13.914558 -4.459898 -4.895283 -6.502567 -2.029167 -4.056932 10.164779 2.456511 12.403196 -7.101480 7.241241 1.419040 -0.575174 -1.411563 -1.066769 -28.207829 0.096211 -12.873694 85.332621 -2.932338 -7.641421 7.284510 9.396133 -2.579537 1.091688 -5.702035 3.383269 8.135551 2.855204 -0.134210 2.566324 -2.611169 3.089419 -2.908932 -6.174657 4.939655 11.117914 -2.152567 -2.657439 9.324459 -11.930550 3.847465 0.153291 -23.521340 -6.360416 -7.348705 12.675076 -25.359074 -30.835209 15.372668 -4.694006 -13.199214 12.038290 0.899713 -1.755775 54.173856 -0.970409 16.421140 -71.606222 72.672471 -66.329065 -13.172238 7.161109 -28.605567 
4.712895 107.512650 -2.977475 2.690019 -41.108726 -12.979174 -4.261554 -5.792210 -6.508349 -4.107335 -7.772363 13.782483 3.641926 10.218549 -8.808940 7.437241 1.068123 -0.891643 -4.572741 -1.728870 -34.683337 -0.163411 -15.169761 90.523739 -4.635652 -7.082419 5.549461 11.252068 -3.035549 1.293536 -5.446728 2.525140 9.436932 2.839370 0.750278 3.175530 -3.691999 3.195455 -3.893959 -5.887901 1.696663 12.663070 -2.727358 -4.713515 11.056239 -13.162543 5.834378 0.119725 -26.086915 -6.085328 -6.692645 17.904612 -29.061588 -36.602102 15.998095 -3.784602 -17.962085 11.834865 0.368257 -1.964593 51.559511 0.850918 14.764666 -84.707301 69.298406 -81.787917 -12.210783 7.453930 -30.280935 
3.330037 107.457565 -1.904126 2.154900 -34.032607 -12.303855 -4.707089 -6.807965 -6.021980 -5.510914 -10.256084 15.385605 3.673058 8.187115 -9.706223 6.908782 0.792984 -0.625323 -7.613932 -2.463529 -37.208481 0.446932 -15.409593 86.695412 -4.668690 -7.839395 2.582069 11.263024 -3.072571 1.258917 -4.561805 2.154770 10.514133 2.408217 1.807743 3.058546 -4.356734 3.016512 -3.772307 -5.572817 -2.258664 13.645494 -2.527637 -6.882570 11.163095 -14.957558 8.024387 -0.023455 -29.438336 -5.995484 -5.355615 23.892529 -32.371292 -42.489542 17.073533 -1.531932 -25.040257 11.568314 -0.505165 -2.413920 48.492139 2.144912 12.480847 -91.166975 64.261000 -90.181160 -12.577135 6.220554 -33.080467 
1.885172 107.563858 -1.047209 1.805060 -27.546814 -10.771097 -4.571247 -7.777129 -6.526851 -6.758666 -12.088762 17.049343 3.177532 5.880473 -10.520977 6.374286 0.568417 -0.317795 -9.381154 -2.784225 -36.724890 1.039764 -13.495382 76.059037 -2.626615 -9.556361 0.583992 8.960727 -2.225266 0.968050 -3.859839 2.097290 11.012408 1.484150 2.655116 2.580553 -4.514690 2.670096 -3.202080 -5.456058 -6.412434 13.510735 -2.188315 -9.214587 10.138178 -16.584042 10.544407 -0.269290 -32.939972 -5.018663 -4.493522 30.157416 -35.293273 -46.970992 18.906660 0.582981 -30.785555 11.073698 -1.100541 -2.879049 45.592445 3.217229 9.974224 -94.907569 59.511731 -95.470404 -14.005778 4.391832 -35.513937 
-0.075785 107.756912 0.763948 1.545391 -21.179275 -8.681231 -4.360427 -8.548577 -7.320009 -7.396219 -13.860827 18.646401 2.884611 3.628612 -11.232687 5.475619 0.434260 0.049968 -10.335361 -3.165120 -33.828117 1.349448 -10.427536 62.993479 -0.242923 -10.890115 -1.405229 6.725471 -1.687160 0.755775 -3.062879 2.680890 11.309569 0.268053 3.662486 1.613917 -4.406252 2.565738 -2.694364 -5.720883 -10.944491 13.181252 -0.920786 -11.591533 8.768148 -18.137512 12.739749 -0.578901 -35.842270 -3.874139 -4.096072 34.682637 -36.651774 -49.811775 19.693794 2.641469 -33.838490 10.155346 -1.706060 -2.791873 43.091287 3.044767 7.392579 -97.847002 56.722480 -99.165238 -13.990801 2.573789 -37.108684 
-1.419616 107.999084 1.293872 1.727345 -15.233327 -6.516133 -4.104908 -9.631828 -8.331697 -7.318094 -16.124209 18.094275 1.886418 1.766718 -10.701151 4.879218 0.457232 0.324761 -10.664623 -3.517638 -29.498250 1.045462 -7.531270 51.710886 1.832993 -10.713399 -1.317963 5.254443 -1.420050 0.574676 -2.819276 3.827002 10.574847 -0.463926 4.773722 1.310277 -4.156397 2.788194 -2.600598 -5.909306 -15.342643 13.253288 0.304778 -14.635090 7.119484 -18.926587 15.615571 -0.507803 -38.510674 -2.575576 -4.501161 38.581328 -37.286007 -51.480083 20.799876 2.934594 -33.753744 9.347665 -2.264606 -2.301751 41.301708 3.091178 5.082994 -100.081073 54.730810 -100.938825 -14.833995 2.501896 -34.917629 
-2.733802 108.218384 1.710229 2.305609 -10.776002 -4.957702 -3.838670 -10.451785 -8.961322 -7.397188 -17.895835 17.816745 0.783306 0.974519 -10.093323 4.361976 0.460902 0.538888 -10.639952 -4.158200 -24.698364 0.396995 -5.618628 42.879318 3.150834 -10.615477 -1.527239 4.710964 -1.436674 0.601007 -2.748961 5.000468 9.597236 -1.225183 5.766619 1.346386 -4.033720 3.188324 -2.598302 -6.344631 -18.931860 13.580680 1.428545 -17.614823 5.568522 -19.378524 17.788552 -0.737777 -39.628609 -0.884045 -5.575635 40.938143 -36.440768 -52.724367 22.274431 3.417194 -33.895559 8.395476 -2.262434 -2.068761 40.004054 3.386658 3.065937 -101.358087 53.448312 -101.625078 -16.696242 2.708896 -32.154408 
-4.057263 108.415924 2.122151 2.751864 -7.532761 -3.599634 -2.996697 -10.908686 -9.620174 -7.154772 -18.808650 17.851109 -0.177709 1.027293 -9.982097 3.795879 0.568727 0.696698 -9.810076 -4.984122 -20.428084 -0.517674 -5.641531 36.405117 3.138401 -11.414811 -3.875178 4.311312 -1.531990 0.583432 -2.523825 5.963180 8.703372 -1.664481 6.783935 1.239673 -3.732721 3.577945 -2.537622 -6.290359 -21.180943 13.336470 2.346874 -19.580265 4.443622 -19.170667 19.465031 -0.936990 -40.272699 0.543572 -6.839886 42.053374 -34.820508 -53.697743 24.340891 3.716620 -33.799799 7.164918 -1.909015 -1.969639 38.539169 3.670356 1.686144 -103.068619 53.041870 -102.072717 -18.356337 3.551712 -29.775529 
-5.283539 108.566284 2.472476 2.761558 -5.319361 -2.746714 -1.707230 -10.787554 -10.121457 -6.337858 -19.836330 17.305407 -0.901540 1.883794 -9.671057 3.262195 0.738685 0.829665 -8.617983 -5.936167 -17.327462 -1.270597 -6.722930 31.479344 2.963128 -12.513532 -5.885128 3.926116 -1.733576 0.487049 -2.141498 6.503388 8.211069 -2.151783 7.640030 1.047017 -3.294273 3.945980 -2.338005 -6.072140 -23.065210 12.674941 3.199916 -20.951082 3.129683 -18.794997 20.508412 -1.123030 -40.390347 2.033134 -8.196652 42.968438 -33.303570 -54.624124 25.325156 3.623506 -33.064509 5.710889 -1.231072 -2.098022 36.941269 3.808473 0.318412 -106.714145 52.175331 -103.807037 -18.143609 4.769361 -26.949877 
-6.354463 108.581375 2.799886 2.794672 -3.878820 -1.949519 -0.790454 -10.465648 -10.088225 -5.154184 -21.012851 15.468342 -1.530377 2.838108 -9.147157 2.828186 0.813747 0.985911 -7.880807 -7.335385 -16.183389 -1.620493 -8.478656 29.144098 3.152133 -13.346457 -7.130033 3.412920 -1.789779 0.515695 -1.897125 6.954775 8.036409 -2.450060 8.313949 1.090385 -3.094038 4.436356 -2.320998 -5.892398 -24.509461 12.236052 3.981845 -22.346984 2.133193 -18.270103 20.827102 -1.226754 -40.060005 3.070516 -9.254039 43.218924 -32.074621 -55.136369 25.781314 3.398945 -32.097691 4.508744 -0.297167 -2.025553 34.964666 3.739732 -1.038673 -110.796914 51.559611 -106.267664 -18.051460 5.901517 -24.372614 
-7.287388 108.397232 3.152670 2.994702 -2.950342 -1.508510 -0.104251 -9.789114 -9.295814 -3.903032 -21.668778 12.936819 -1.968462 3.566886 -9.024196 2.553940 0.872333 1.138366 -7.641543 -8.722641 -16.467503 -1.996152 -10.627309 29.282615 3.155105 -14.654861 -7.625919 2.993512 -1.837569 0.652943 -1.640305 6.903816 8.005779 -2.844457 8.771802 0.989730 -2.850053 4.680002 -2.185252 -5.942642 -25.610272 11.694990 4.346684 -23.370995 1.511757 -17.576280 20.836803 -1.206185 -39.959717 3.908493 -10.158335 42.769109 -31.152431 -54.796226 26.585372 3.374660 -30.368771 3.167842 0.512942 -2.093199 32.985583 3.724024 -2.089393 -114.605627 51.183992 -108.572197 -18.028001 7.254322 -20.987427 
-8.182671 108.022278 3.609244 3.169118 -4.199334 -1.723897 0.248799 -9.024723 -7.646984 -2.831123 -22.014945 10.960230 -1.980454 4.703304 -9.575966 2.483530 0.963136 1.290139 -8.379988 -10.265420 -18.188943 -2.108875 -13.035313 31.991716 3.527166 -15.634417 -7.427668 2.627734 -1.829362 0.746264 -1.705576 6.614559 8.029263 -3.210620 9.510012 0.850812 -2.730528 5.081820 -2.016733 -5.988648 -25.958195 11.791539 4.517552 -23.098005 1.826908 -16.899832 20.769930 -1.096366 -39.583452 4.616865 -10.776433 42.710015 -31.256623 -54.895340 27.990913 3.540746 -29.307749 1.913615 1.130442 -1.991824 31.685508 4.109424 -2.677076 -117.798413 51.284423 -111.375322 -18.136818 8.269403 -18.978809 
-9.146680 107.502869 4.080613 3.591190 -6.142660 -2.086398 0.228221 -7.909578 -5.585115 -2.035508 -21.355911 9.340653 -1.824383 5.399615 -10.992751 2.547564 1.003068 1.368461 -10.022755 -11.857914 -21.456360 -2.971451 -15.680504 37.007201 3.296557 -17.358092 -7.132417 2.182967 -1.751964 0.869559 -1.693748 6.087427 8.602455 -3.540443 10.177753 1.042259 -2.935391 5.396300 -2.136710 -6.324505 -26.432455 12.317023 4.607010 -22.813808 2.111237 -16.415264 20.417898 -0.879325 -38.893175 5.086936 -11.014810 43.605603 -32.333648 -55.441323 29.627219 3.358059 -27.665074 0.804879 1.709941 -1.750705 30.587455 4.326039 -3.224787 -120.370379 51.210186 -114.149080 -18.952935 8.845076 -17.551008 
